<?xml version="1.0" standalone="no"?><!DOCTYPE svg PUBLIC "-//W3C//DTD SVG 1.1//EN" "http://www.w3.org/Graphics/SVG/1.1/DTD/svg11.dtd"><svg t="1584269634676" class="icon" viewBox="0 0 1024 1024" version="1.1" xmlns="http://www.w3.org/2000/svg" p-id="8270" xmlns:xlink="http://www.w3.org/1999/xlink" width="20" height="20"><defs><style type="text/css">* { color: rgb(153, 153, 153) !important; text-shadow: rgb(0, 0, 0) 0px 0px 3px !important; box-shadow: none !important; background-color: transparent !important; border-color: rgb(68, 68, 68) !important; }
</style></defs><path d="M938.666667 548.608v298.666667a85.333333 85.333333 0 0 1-85.333334 85.333333h-85.333333a85.333333 85.333333 0 0 1-85.333333-85.333333v-213.333334a85.333333 85.333333 0 0 1 85.333333-85.333333h85.333333a341.333333 341.333333 0 1 0-682.666666 0h85.333333a85.333333 85.333333 0 0 1 85.333333 85.333333v213.333334a85.333333 85.333333 0 0 1-85.333333 85.333333H170.666667a85.333333 85.333333 0 0 1-85.333334-85.333333v-298.666667c0-235.648 191.018667-426.666667 426.666667-426.666667s426.666667 191.018667 426.666667 426.666667z" p-id="8271" fill="#bfbfbf"></path></svg>