<?xml version="1.0" standalone="no"?><!DOCTYPE svg PUBLIC "-//W3C//DTD SVG 1.1//EN" "http://www.w3.org/Graphics/SVG/1.1/DTD/svg11.dtd"><svg t="1584027938845" class="icon" viewBox="0 0 1024 1024" version="1.1" xmlns="http://www.w3.org/2000/svg" p-id="1335" xmlns:xlink="http://www.w3.org/1999/xlink" width="200" height="200"><defs><style type="text/css">* { color: rgb(153, 153, 153) !important; text-shadow: rgb(0, 0, 0) 0px 0px 3px !important; box-shadow: none !important; background-color: transparent !important; border-color: rgb(68, 68, 68) !important; }
</style></defs><path d="M64 512V128a16 16 0 0 1 32 0v384a16 16 0 0 1-32 0z" fill="#68539B" p-id="1336"></path><path d="M784 816m-96 0a96 96 0 1 0 192 0 96 96 0 1 0-192 0Z" fill="#68539B" p-id="1337"></path><path d="M560 816m-96 0a96 96 0 1 0 192 0 96 96 0 1 0-192 0Z" fill="#68539B" p-id="1338"></path><path d="M224 816m-96 0a96 96 0 1 0 192 0 96 96 0 1 0-192 0Z" fill="#68539B" p-id="1339"></path><path d="M784 816m-32 0a32 32 0 1 0 64 0 32 32 0 1 0-64 0Z" fill="#D82FEA" p-id="1340"></path><path d="M560 816m-32 0a32 32 0 1 0 64 0 32 32 0 1 0-64 0Z" fill="#D82FEA" p-id="1341"></path><path d="M224 816m-32 0a32 32 0 1 0 64 0 32 32 0 1 0-64 0Z" fill="#D82FEA" p-id="1342"></path><path d="M880 368v64a192 192 0 0 0-192-192h-144v-64h144a192 192 0 0 1 192 192z" fill="#93E6D9" p-id="1343"></path><path d="M880 432v48l-96-96h-128l-112-112v-32h144a192 192 0 0 1 192 192z" fill="#2DE0C7" p-id="1344"></path><path d="M944 594.72A77.28 77.28 0 0 1 866.72 672H160l-80-80v-64l80 80h706.72a77.28 77.28 0 0 0 73.92-54.72 126.24 126.24 0 0 1 3.36 41.44z" fill="#FFE5C0" p-id="1345"></path><path d="M940.64 553.28A77.28 77.28 0 0 1 866.72 608H160l-80-80v-64l80-80h288c0-227.04-4.64-223.2 14.08-241.92A48 48 0 0 1 544 176v96l112 112h128c151.36 151.36 149.12 144.96 156.64 169.28z" fill="#FEF5E3" p-id="1346"></path><path d="M592 552a56 56 0 0 1-56 56h-400a56 56 0 0 1 0-112h400a56.16 56.16 0 0 1 56 56z" fill="#D82FEA" p-id="1347"></path><path d="M586.4 528a55.68 55.68 0 0 1-50.4 32h-400a56 56 0 0 1-50.4-32 55.68 55.68 0 0 1 50.4-32h400a56 56 0 0 1 50.4 32z" fill="#E667F9" p-id="1348"></path><path d="M448 256v128H160a128 128 0 0 1 128-128z" fill="#6163AA" p-id="1349"></path><path d="M400 256a80 80 0 0 1-80 80h-150.72A128 128 0 0 1 288 256z" fill="#898EC9" p-id="1350"></path><path d="M784 864a48 48 0 1 1 48-48 48 48 0 0 1-48 48z m0-64a16 16 0 0 0 0 32 16 16 0 0 0 0-32z" fill="#35214C" p-id="1351"></path><path d="M784 928a112 112 0 1 1 112-112 112 112 0 0 1-112 112z m0-192a80 80 0 1 0 80 80 80 80 0 0 0-80-80zM560 864a48 48 0 1 1 48-48 48 48 0 0 1-48 48z m0-64a16 16 0 0 0 0 32 16 16 0 0 0 0-32z" fill="#35214C" p-id="1352"></path><path d="M560 928a112 112 0 0 1-105.6-75.2 16 16 0 0 1 30.08-10.56 80 80 0 1 0 0-52.48 16 16 0 0 1-30.08-10.56A112 112 0 1 1 560 928zM225.44 864a48 48 0 1 1-1.44-96c48 0 62.08 64 32 64a16 16 0 0 1-16-16 16 16 0 1 0-16 16 16 16 0 0 1 1.44 32z" fill="#35214C" p-id="1353"></path><path d="M224 928a112 112 0 1 1 112-112 112 112 0 0 1-112 112z m0-192a80 80 0 1 0 80 80 80 80 0 0 0-80-80zM448 736a16 16 0 0 1-11.36-27.36C486.56 658.88 486.72 656 496 656h240a16 16 0 0 1 0 32H502.56c-46.4 46.4-45.6 48-54.56 48zM896 736c-8.8 0-7.52-0.96-54.56-48H800a16 16 0 0 1 0-32h48c8.8 0 6.88 0 59.36 52.64A16 16 0 0 1 896 736z" fill="#35214C" p-id="1354"></path><path d="M336 736c-8.8 0-7.52-0.96-54.56-48h-114.88l-43.2 43.36a16 16 0 0 1-22.72-22.72C150.56 658.88 150.72 656 160 656c136.96 0 132.8-1.92 139.36 4.64l48 48A16 16 0 0 1 336 736zM880 496c-9.28 0-4.64 1.92-102.56-96-129.28 0-126.08 1.92-132.8-4.64C524 274.56 528 281.28 528 272v-96a16 16 0 0 1 16-16h144a208 208 0 0 1 172.48 91.84 16 16 0 0 1-26.56 17.92A176 176 0 0 0 688 192h-128v73.44L662.56 368c129.28 0 126.08-1.92 132.8 4.64l68.64 68.8c0-70.08 1.92-89.92-5.92-118.56a16 16 0 0 1 30.72-8.64A200.8 200.8 0 0 1 896 368c0 112 5.44 128-16 128z" fill="#35214C" p-id="1355"></path><path d="M866.72 688H800a16 16 0 0 1 0-32h66.72A61.44 61.44 0 0 0 928 594.72c0-56.16 7.68-36.48-150.56-194.72-129.28 0-126.08 1.92-132.8-4.64C524 274.56 528 281.28 528 272v-96a32 32 0 0 0-64 0v208a16 16 0 0 1-16 16h-80a16 16 0 0 1 0-32h64c0-201.76-6.24-212.16 18.72-237.28A64 64 0 0 1 560 176v89.44L662.56 368c129.28 0 126.08-1.92 132.8 4.64C956.8 534.24 960 522.4 960 594.72A93.44 93.44 0 0 1 866.72 688zM736 688c-613.6 0-580.32 2.24-587.36-4.64C62.08 596.8 64 601.28 64 592c0-136.96-1.92-132.64 4.64-139.36C152.96 368 150.56 368 160 368h144a16 16 0 0 1 0 32h-137.44L96 470.56v114.88L166.56 656H736a16 16 0 0 1 0 32z" fill="#35214C" p-id="1356"></path><path d="M536 624H224a16 16 0 0 1 0-32h312a40 40 0 0 0 28.32-68.16c-16-16 3.84-11.84-428.32-11.84a40 40 0 0 0-28.32 68.16c14.08 14.24 27.68 11.84 52.32 11.84a16 16 0 0 1 0 32c-28.16 0-51.52 2.56-74.88-21.28A72 72 0 0 1 136 480h400a70.56 70.56 0 0 1 50.88 21.28A72 72 0 0 1 536 624zM448 400h-80a16 16 0 0 1 0-32h64v-96h-144a112 112 0 0 0-110.88 96H304a16 16 0 0 1 0 32h-144c-44.16 0-1.76-160 128-160h160a16 16 0 0 1 16 16v128a16 16 0 0 1-16 16zM800 544h-112a16 16 0 0 1 0-32h112a16 16 0 0 1 0 32zM800 608h-112a16 16 0 0 1 0-32h112a16 16 0 0 1 0 32z" fill="#35214C" p-id="1357"></path></svg>