<?xml version="1.0" standalone="no"?><!DOCTYPE svg PUBLIC "-//W3C//DTD SVG 1.1//EN" "http://www.w3.org/Graphics/SVG/1.1/DTD/svg11.dtd"><svg t="1584270014201" class="icon" viewBox="0 0 1024 1024" version="1.1" xmlns="http://www.w3.org/2000/svg" p-id="12287" xmlns:xlink="http://www.w3.org/1999/xlink" width="20" height="20"><defs><style type="text/css">* { color: rgb(153, 153, 153) !important; text-shadow: rgb(0, 0, 0) 0px 0px 3px !important; box-shadow: none !important; background-color: transparent !important; border-color: rgb(68, 68, 68) !important; }
</style></defs><path d="M873.7 786zM765.7 360.8c-17.8 0-32.2 14.4-32.2 32.2v92c0 130.1-116.4 235.9-259.4 235.9S214.7 615.1 214.7 485v-95.6c0-17.8-14.4-32.2-32.2-32.2-17.8 0-32.2 14.4-32.2 32.2V485c0 158.9 134.1 288.1 302.6 298.4v112.2H318.7c-16.2 0-29.4 14.4-29.4 32.3 0 17.8 13.1 32.1 29.4 32.1h321.1c16.2 0 29.4-14.4 29.4-32.1 0-17.8-13.2-32.3-29.4-32.3H517.3V781.4C675.3 761.5 797.9 637 797.9 485v-92c0-17.8-14.3-32.2-32.2-32.2z" fill="#bfbfbf" p-id="12288"></path><path d="M479.3 676.7c110.5-0.1 200.1-89.6 200.2-200.1V264.1c-0.2-110.5-89.7-200-200.2-200.1-110.5 0.1-200 89.7-200.1 200.1v212.4c0.1 110.5 89.6 200.1 200.1 200.2z" fill="#bfbfbf" p-id="12289"></path></svg>