<?xml version="1.0" standalone="no"?><!DOCTYPE svg PUBLIC "-//W3C//DTD SVG 1.1//EN" "http://www.w3.org/Graphics/SVG/1.1/DTD/svg11.dtd"><svg t="1585119753999" class="icon" viewBox="0 0 1024 1024" version="1.1" xmlns="http://www.w3.org/2000/svg" p-id="5381" width="48" height="48" xmlns:xlink="http://www.w3.org/1999/xlink"><defs><style type="text/css">* { color: rgb(153, 153, 153) !important; text-shadow: rgb(0, 0, 0) 0px 0px 3px !important; box-shadow: none !important; background-color: transparent !important; border-color: rgb(68, 68, 68) !important; }
</style></defs><path d="M94.82496 295.384615h827.076923v433.23077H94.82496z" fill="#A8E8FF" p-id="5382"></path><path d="M941.594191 748.307692H75.132652V275.692308h866.461539zM114.517268 708.923077h787.692307V315.076923H114.517268z" fill="#0A4E66" p-id="5383"></path><path d="M55.440345 19.692308m19.692307 0l866.461539 0q19.692308 0 19.692307 19.692307l0 236.307693q0 19.692308-19.692307 19.692307l-866.461539 0q-19.692308 0-19.692307-19.692307l0-236.307693q0-19.692308 19.692307-19.692307Z" fill="#A8E8FF" p-id="5384"></path><path d="M941.594191 315.076923H75.132652a39.384615 39.384615 0 0 1-39.384615-39.384615V39.384615a39.384615 39.384615 0 0 1 39.384615-39.384615h866.461539a39.384615 39.384615 0 0 1 39.384615 39.384615v236.307693a39.384615 39.384615 0 0 1-39.384615 39.384615zM75.132652 39.384615v236.307693h866.461539V39.384615z" fill="#0A4E66" p-id="5385"></path><path d="M705.286498 177.230769m-19.692307 0l0 0q-19.692308 0-19.692308-19.692307l0 0q0-19.692308 19.692308-19.692308l0 0q19.692308 0 19.692307 19.692308l0 0q0 19.692308-19.692307 19.692307Z" fill="#0A4E66" p-id="5386"></path><path d="M784.055729 177.230769m-19.692307 0l0 0q-19.692308 0-19.692308-19.692307l0 0q0-19.692308 19.692308-19.692308l0 0q19.692308 0 19.692307 19.692308l0 0q0 19.692308-19.692307 19.692307Z" fill="#0A4E66" p-id="5387"></path><path d="M862.82496 177.230769m-19.692308 0l0 0q-19.692308 0-19.692307-19.692307l0 0q0-19.692308 19.692307-19.692308l0 0q19.692308 0 19.692308 19.692308l0 0q0 19.692308-19.692308 19.692307Z" fill="#0A4E66" p-id="5388"></path><path d="M331.132652 177.230769m-19.692307 0l-118.153847 0q-19.692308 0-19.692307-19.692307l0 0q0-19.692308 19.692307-19.692308l118.153847 0q19.692308 0 19.692307 19.692308l0 0q0 19.692308-19.692307 19.692307Z" fill="#0A4E66" p-id="5389"></path><path d="M55.440345 374.153846m19.692307 0l866.461539 0q19.692308 0 19.692307 19.692308l0 236.307692q0 19.692308-19.692307 19.692308l-866.461539 0q-19.692308 0-19.692307-19.692308l0-236.307692q0-19.692308 19.692307-19.692308Z" fill="#44AECF" p-id="5390"></path><path d="M941.594191 669.538462H75.132652a39.384615 39.384615 0 0 1-39.384615-39.384616V393.846154a39.384615 39.384615 0 0 1 39.384615-39.384616h866.461539a39.384615 39.384615 0 0 1 39.384615 39.384616v236.307692a39.384615 39.384615 0 0 1-39.384615 39.384616zM75.132652 393.846154v236.307692h866.461539V393.846154z" fill="#0A4E66" p-id="5391"></path><path d="M705.286498 531.692308m-19.692307 0l0 0q-19.692308 0-19.692308-19.692308l0 0q0-19.692308 19.692308-19.692308l0 0q19.692308 0 19.692307 19.692308l0 0q0 19.692308-19.692307 19.692308Z" fill="#0A4E66" p-id="5392"></path><path d="M784.055729 531.692308m-19.692307 0l0 0q-19.692308 0-19.692308-19.692308l0 0q0-19.692308 19.692308-19.692308l0 0q19.692308 0 19.692307 19.692308l0 0q0 19.692308-19.692307 19.692308Z" fill="#0A4E66" p-id="5393"></path><path d="M862.82496 531.692308m-19.692308 0l0 0q-19.692308 0-19.692307-19.692308l0 0q0-19.692308 19.692307-19.692308l0 0q19.692308 0 19.692308 19.692308l0 0q0 19.692308-19.692308 19.692308Z" fill="#0A4E66" p-id="5394"></path><path d="M331.132652 531.692308m-19.692307 0l-118.153847 0q-19.692308 0-19.692307-19.692308l0 0q0-19.692308 19.692307-19.692308l118.153847 0q19.692308 0 19.692307 19.692308l0 0q0 19.692308-19.692307 19.692308Z" fill="#0A4E66" p-id="5395"></path><path d="M55.440345 728.615385m19.692307 0l866.461539 0q19.692308 0 19.692307 19.692307l0 236.307693q0 19.692308-19.692307 19.692307l-866.461539 0q-19.692308 0-19.692307-19.692307l0-236.307693q0-19.692308 19.692307-19.692307Z" fill="#44AECF" p-id="5396"></path><path d="M941.594191 1024H75.132652a39.384615 39.384615 0 0 1-39.384615-39.384615V748.307692a39.384615 39.384615 0 0 1 39.384615-39.384615h866.461539a39.384615 39.384615 0 0 1 39.384615 39.384615v236.307693a39.384615 39.384615 0 0 1-39.384615 39.384615zM75.132652 748.307692v236.307693h866.461539V748.307692z" fill="#0A4E66" p-id="5397"></path><path d="M705.286498 886.153846m-19.692307 0l0 0q-19.692308 0-19.692308-19.692308l0 0q0-19.692308 19.692308-19.692307l0 0q19.692308 0 19.692307 19.692307l0 0q0 19.692308-19.692307 19.692308Z" fill="#0A4E66" p-id="5398"></path><path d="M784.055729 886.153846m-19.692307 0l0 0q-19.692308 0-19.692308-19.692308l0 0q0-19.692308 19.692308-19.692307l0 0q19.692308 0 19.692307 19.692307l0 0q0 19.692308-19.692307 19.692308Z" fill="#0A4E66" p-id="5399"></path><path d="M862.82496 886.153846m-19.692308 0l0 0q-19.692308 0-19.692307-19.692308l0 0q0-19.692308 19.692307-19.692307l0 0q19.692308 0 19.692308 19.692307l0 0q0 19.692308-19.692308 19.692308Z" fill="#0A4E66" p-id="5400"></path><path d="M331.132652 886.153846m-19.692307 0l-118.153847 0q-19.692308 0-19.692307-19.692308l0 0q0-19.692308 19.692307-19.692307l118.153847 0q19.692308 0 19.692307 19.692307l0 0q0 19.692308-19.692307 19.692308Z" fill="#0A4E66" p-id="5401"></path></svg>